# File created by Blade
# Date/Time:  Tue Sep 30 19:08:11 2014
#---------------------------------------------------------
:version 1.10
:name HOM
:units
  mass 1.0
  length 1.000000
  angle deg
:documentation
     Acclaim Skeleton File
:root
   axis xyz
   order TX TY TZ RX RY RZ
   position 0.000000 0.000000 0.000000
   orientation 0 0 0
:bonedata
   begin
      id 1
      name Spine_dum
      direction 0.000000 1.000000 0.000000
      length 7.508948
      axis 0.0 0.0 0.0 xyz
   end
   begin
      id 2
      name LeftUpLeg_dum
      direction 1.000000 0.000000 0.000000
      length 3.000560
      axis 0.0 0.0 0.0 xyz
   end
   begin
      id 3
      name RightUpLeg_dum
      direction -1.000000 0.000000 0.000000
      length 3.000560
      axis 0.0 0.0 0.0 xyz
   end
   begin
      id 4
      name Spine
      direction 0.000000 1.000000 0.000000
      length 0.000000
      axis 0.0 0.0 0.0 xyz
      dof rx ry rz
   end
   begin
      id 5
      name Spine_dum1
      direction 0.000000 1.000000 0.000000
      length 13.861154
      axis 0.0 0.0 0.0 xyz
   end
   begin
      id 6
      name Spine_dum2
      direction 0.000000 1.000000 0.000000
      length 8.204781
      axis 0.0 0.0 0.0 xyz
   end
   begin
      id 7
      name Spine_dum3
      direction 0.000000 1.000000 0.000000
      length 8.204781
      axis 0.0 0.0 0.0 xyz
   end
   begin
      id 8
      name Head
      direction 0.000000 1.000000 0.000000
      length 4.527550
      axis 0.0 0.0 0.0 xyz
      dof rx ry rz
   end
   begin
      id 9
      name LeftShoulder
      direction 1.000000 0.000000 0.000000
      length 6.635956
      axis 0.0 0.0 -90.0 xyz
      dof rx ry rz
   end
   begin
      id 10
      name LeftArm
      direction 1.000000 0.000000 0.000000
      length 10.274218
      axis 0.0 0.0 -90.0 xyz
      dof rx ry rz
   end
   begin
      id 11
      name LeftForeArm
      direction 1.000000 0.000000 0.000000
      length 8.522147
      axis 0.0 0.0 -90.0 xyz
      dof ry rz rx
   end
   begin
      id 12
      name LeftHand
      direction 0.000000 0.000000 0.000000
      length 0.000000
      axis 0.0 0.0 -90.0 xyz
      dof rx ry rz
   end
   begin
      id 13
      name LeftHand_dum1
      direction 0.000000 0.000000 0.000000
      length 0.000000
      axis 0.0 0.0 -90.0 xyz
   end
   begin
      id 14
      name LeftHand_dum2
      direction 1.000000 0.000000 0.000000
      length 3.937000
      axis 0.0 0.0 -90.0 xyz
   end
   begin
      id 15
      name LeftHandThumb1
      direction 0.000000 0.000000 1.000000
      length 3.937000
      axis 0.0 0.0 -90.0 xyz
      dof rx rz ry
   end
   begin
      id 16
      name RightShoulder
      direction -1.000000 0.000000 0.000000
      length 6.635956
      axis 0.0 0.0 90.0 xyz
      dof rx ry rz
   end
   begin
      id 17
      name RightArm
      direction -1.000000 0.000000 0.000000
      length 10.274218
      axis 0.0 0.0 90.0 xyz
      dof rx ry rz
   end
   begin
      id 18
      name RightForeArm
      direction -1.000000 0.000000 0.000000
      length 8.522147
      axis 0.0 0.0 90.0 xyz
      dof ry rz rx
   end
   begin
      id 19
      name RightHand
      direction 0.000000 0.000000 0.000000
      length 0.000000
      axis 0.0 0.0 90.0 xyz
      dof rx ry rz
   end
   begin
      id 20
      name RightHand_dum1
      direction 0.000000 0.000000 0.000000
      length 0.000000
      axis 0.0 0.0 90.0 xyz
   end
   begin
      id 21
      name RightHand_dum2
      direction -1.000000 0.000000 0.000000
      length 3.937000
      axis 0.0 0.0 90.0 xyz
   end
   begin
      id 22
      name RightHandThumb1
      direction 0.000000 0.000000 1.000000
      length 3.937000
      axis 0.0 0.0 90.0 xyz
      dof rx rz ry
   end
   begin
      id 23
      name LeftUpLeg
      direction 0.000000 -1.000000 0.000000
      length 16.490845
      axis 0.0 0.0 0.0 xyz
      dof rx ry rz
   end
   begin
      id 24
      name LeftLeg
      direction 0.000000 -1.000000 0.000000
      length 14.556576
      axis 0.0 0.0 0.0 xyz
      dof rx ry rz
   end
   begin
      id 25
      name LeftFoot
      direction 0.000000 -0.258819 0.965926
      length 4.831116
      axis 15.0 0.0 0.0 xyz
      dof rx ry rz
   end
   begin
      id 26
      name LeftToeBase
      direction 0.000000 0.000000 1.000000
      length 2.952750
      axis 0.0 0.0 0.0 xyz
      dof rx ry rz
   end
   begin
      id 27
      name RightUpLeg
      direction 0.000000 -1.000000 0.000000
      length 16.490845
      axis 0.0 0.0 0.0 xyz
      dof rx ry rz
   end
   begin
      id 28
      name RightLeg
      direction 0.000000 -1.000000 0.000000
      length 14.556576
      axis 0.0 0.0 0.0 xyz
      dof rx ry rz
   end
   begin
      id 29
      name RightFoot
      direction 0.000000 -0.258819 0.965926
      length 4.831116
      axis 15.0 0.0 0.0 xyz
      dof rx ry rz
   end
   begin
      id 30
      name RightToeBase
      direction 0.000000 0.000000 1.000000
      length 2.952750
      axis 0.0 0.0 0.0 xyz
      dof rx ry rz
   end
:hierarchy
   begin
      root Spine_dum LeftUpLeg_dum RightUpLeg_dum
      Spine_dum Spine
      LeftUpLeg_dum LeftUpLeg
      RightUpLeg_dum RightUpLeg
      Spine Spine_dum1 Spine_dum2 Spine_dum3
      Spine_dum1 Head
      Spine_dum2 LeftShoulder
      Spine_dum3 RightShoulder
      LeftShoulder LeftArm
      LeftArm LeftForeArm
      LeftForeArm LeftHand
      LeftHand LeftHand_dum1 LeftHand_dum2
      LeftHand_dum1 LeftHandThumb1
      RightShoulder RightArm
      RightArm RightForeArm
      RightForeArm RightHand
      RightHand RightHand_dum1 RightHand_dum2
      RightHand_dum1 RightHandThumb1
      LeftUpLeg LeftLeg
      LeftLeg LeftFoot
      LeftFoot LeftToeBase
      RightUpLeg RightLeg
      RightLeg RightFoot
      RightFoot RightToeBase
   end

# File created by Blade
# Date/Time:  Thu Sep 25 21:01:51 2014
# Frame Rate: 120.000 fps
#------------------------------------------------------
:FULLY-SPECIFIED
:DEGREES
401
root 1.397297 3.572330 -14.985934 -17.411258 -23.861300 -13.155817
Spine 31.637884 10.913006 6.801402
Head -26.290204 8.569656 4.589500
LeftShoulder 0.979147 16.726951 20.224143
LeftArm 6.410612 18.803473 -100.107315
LeftForeArm -53.640748 0.000000 23.795068
LeftHand -51.808599 -0.000000 100.462184
LeftHandThumb1 -26.253704 0.000000 33.147579
RightShoulder -7.103634 20.690168 -26.374028
RightArm 13.133581 -36.467804 37.379088
RightForeArm -21.511161 -0.000000 53.207610
RightHand -0.775745 -0.000000 13.809986
RightHandThumb1 -24.326973 -0.000000 -32.862282
LeftUpLeg -109.314326 22.336978 -18.919885
LeftLeg 76.888420 -0.000000 -0.000000
LeftFoot 11.834800 16.373905 -23.663909
LeftToeBase 6.642373 -0.000000 -0.000000
RightUpLeg -114.151270 -7.976691 0.082873
RightLeg 140.135992 -0.000000 -0.000000
RightFoot -14.125520 -4.010110 3.670799
RightToeBase -0.527931 -0.000000 0.000000
402
root 1.429621 3.538509 -14.986470 -17.557518 -23.958425 -13.238505
Spine 31.742359 10.851550 6.909153
Head -26.292366 8.047760 5.002506
LeftShoulder 1.005103 16.677532 20.544041
LeftArm 6.279383 19.295570 -100.436680
LeftForeArm -54.068809 -0.000000 23.973820
LeftHand -51.741683 -0.000000 100.726755
LeftHandThumb1 -26.253704 0.000000 33.147579
RightShoulder -7.397851 20.187486 -26.120854
RightArm 12.563382 -37.783538 38.595076
RightForeArm -21.822426 -0.000000 53.390803
RightHand -0.953052 -0.000000 14.184674
RightHandThumb1 -24.326973 -0.000000 -32.862282
LeftUpLeg -109.227806 22.367879 -18.931927
LeftLeg 76.810388 -0.000000 -0.000000
LeftFoot 11.927805 16.097730 -22.780239
LeftToeBase 6.997634 -0.000000 -0.000000
RightUpLeg -114.109148 -7.953800 0.013448
RightLeg 140.072624 -0.000000 -0.000000
RightFoot -13.935358 -4.027085 3.545371
RightToeBase -0.436925 -0.000000 0.000000
403
root 1.450887 3.508062 -14.983995 -17.736182 -24.063311 -13.319709
Spine 31.848288 10.844533 6.948860
Head -26.185138 7.610464 5.604245
LeftShoulder 1.044007 16.587539 20.960635
LeftArm 6.140412 19.956391 -100.733809
LeftForeArm -54.739058 -0.000000 24.134316
LeftHand -51.447889 0.000000 101.067517
LeftHandThumb1 -26.253704 0.000000 33.147579
RightShoulder -7.681365 19.642432 -25.689304
RightArm 12.092407 -39.144865 39.625132
RightForeArm -22.194180 -0.000000 53.583206
RightHand -1.006623 0.000000 14.414834
RightHandThumb1 -24.326973 -0.000000 -32.862282
LeftUpLeg -109.160562 22.464658 -18.979557
LeftLeg 76.782027 -0.000000 -0.000000
LeftFoot 11.942426 15.960730 -22.385372
LeftToeBase 6.839741 -0.000000 -0.000000
RightUpLeg -114.014862 -7.915327 -0.027316
RightLeg 140.026402 -0.000000 -0.000000
RightFoot -13.800762 -4.103398 3.500653
RightToeBase -0.519100 -0.000000 0.000000
404
root 1.461164 3.481396 -14.980125 -17.897679 -24.156791 -13.477746
Spine 31.925323 10.850348 7.054749
Head -25.989779 7.073159 6.285548
LeftShoulder 1.156139 16.523424 21.413600
LeftArm 6.061094 20.819089 -100.954194
LeftForeArm -55.452616 -0.000000 24.210116
LeftHand -51.589760 0.000000 101.435613
LeftHandThumb1 -26.253704 0.000000 33.147579
RightShoulder -7.978742 19.070943 -25.266922
RightArm 11.638343 -40.435979 40.774863
RightForeArm -22.492428 0.000000 53.585178
RightHand -0.938753 -0.000000 14.751475
RightHandThumb1 -24.326973 -0.000000 -32.862282
LeftUpLeg -109.110576 22.573342 -18.987608
LeftLeg 76.788848 -0.000000 -0.000000
LeftFoot 11.915760 15.872246 -22.274978
LeftToeBase 6.735644 -0.000000 -0.000000
RightUpLeg -113.868087 -7.868350 0.012530
RightLeg 140.005184 -0.000000 -0.000000
RightFoot -13.755997 -4.306406 3.453044
RightToeBase -0.528455 -0.000000 0.000000
405
root 1.465631 3.461124 -14.970322 -18.116031 -24.192930 -13.690522
Spine 32.053428 10.696258 7.142900
Head -25.706028 6.611381 6.996944
LeftShoulder 1.236197 16.510388 21.842543
LeftArm 5.985104 21.840444 -101.106447
LeftForeArm -56.366076 -0.000000 24.365406
LeftHand -51.601828 -0.000000 101.760556
LeftHandThumb1 -26.253704 0.000000 33.147579
RightShoulder -8.168145 18.655065 -24.835650
RightArm 11.091847 -41.770042 42.039574
RightForeArm -22.864225 -0.000000 53.520449
RightHand -0.862783 -0.000000 15.258069
RightHandThumb1 -24.326973 -0.000000 -32.862282
LeftUpLeg -108.957160 22.654996 -18.939309
LeftLeg 76.828685 -0.000000 -0.000000
LeftFoot 11.777025 15.807383 -22.361595
LeftToeBase 6.621092 -0.000000 -0.000000
RightUpLeg -113.613293 -7.896487 0.100343
RightLeg 140.008361 -0.000000 -0.000000
RightFoot -13.671256 -4.521874 3.452242
RightToeBase -0.527676 -0.000000 0.000000
406
root 1.461485 3.443042 -14.958434 -18.324020 -24.235645 -13.882094
Spine 32.082108 10.629574 7.177322
Head -25.246572 6.114572 7.826809
LeftShoulder 1.466737 16.506834 22.330692
LeftArm 5.878027 22.931640 -101.178316
LeftForeArm -57.351788 -0.000000 24.575428
LeftHand -51.868372 0.000000 102.223378
LeftHandThumb1 -26.253704 0.000000 33.147579
RightShoulder -8.388871 18.150221 -24.317254
RightArm 10.600681 -43.013413 43.348113
RightForeArm -22.960424 -0.000000 53.338560
RightHand -0.926714 -0.000000 15.537181
RightHandThumb1 -24.326973 -0.000000 -32.862282
LeftUpLeg -108.857155 22.776101 -18.952344
LeftLeg 76.912713 -0.000000 -0.000000
LeftFoot 11.652551 15.697792 -22.429807
LeftToeBase 6.624418 -0.000000 -0.000000
RightUpLeg -113.355117 -7.897370 0.159654
RightLeg 140.060534 -0.000000 -0.000000
RightFoot -13.631051 -4.589621 3.552104
RightToeBase -0.445701 -0.000000 0.000000
407
root 1.444635 3.426947 -14.946431 -18.470791 -24.313577 -14.119398
Spine 32.054661 10.527033 7.193967
Head -24.852594 5.641314 8.681194
LeftShoulder 1.561052 16.523711 22.750018
LeftArm 5.678573 24.020781 -101.208019
LeftForeArm -58.367182 -0.000000 24.925967
LeftHand -52.005133 0.000000 102.652118
LeftHandThumb1 -26.253704 0.000000 33.147579
RightShoulder -8.522026 17.607609 -23.817504
RightArm 10.055884 -44.085880 44.840761
RightForeArm -23.038303 -0.000000 53.066704
RightHand -1.382257 -0.000000 15.699689
RightHandThumb1 -24.326973 -0.000000 -32.862282
LeftUpLeg -108.844606 22.935927 -18.920277
LeftLeg 77.048658 -0.000000 -0.000000
LeftFoot 11.573596 15.599295 -22.467503
LeftToeBase 6.570192 -0.000000 -0.000000
RightUpLeg -113.139831 -7.841413 0.305028
RightLeg 140.094158 -0.000000 -0.000000
RightFoot -13.456936 -4.803865 3.593027
RightToeBase -0.444617 -0.000000 0.000000
408
root 1.420529 3.418369 -14.940654 -18.618731 -24.443440 -14.484725
Spine 32.051824 10.401208 7.350495
Head -24.301645 5.210417 9.476802
LeftShoulder 1.713210 16.627924 23.166897
LeftArm 5.539771 24.744221 -101.332336
LeftForeArm -58.925607 -0.000000 25.211385
LeftHand -52.445007 -0.000000 103.221554
LeftHandThumb1 -26.253704 0.000000 33.147579
RightShoulder -8.611399 17.267531 -23.322907
RightArm 9.316047 -45.173329 46.458007
RightForeArm -22.999701 -0.000000 52.615754
RightHand -1.127841 -0.000000 16.160080
RightHandThumb1 -24.326973 -0.000000 -32.862282
LeftUpLeg -108.830377 23.170770 -18.830581
LeftLeg 77.191158 -0.000000 -0.000000
LeftFoot 11.580587 15.492831 -22.402114
LeftToeBase 6.297870 -0.000000 -0.000000
RightUpLeg -112.803687 -7.713247 0.609504
RightLeg 140.094722 -0.000000 -0.000000
RightFoot -13.275406 -5.034875 3.745670
RightToeBase -0.493558 -0.000000 0.000000
409
root 1.396542 3.410994 -14.935943 -18.703276 -24.519094 -14.813983
Spine 31.935504 10.209246 7.375719
Head -23.731214 4.831032 10.368384
LeftShoulder 1.787879 16.847139 23.538247
LeftArm 5.406805 25.188643 -101.472751
LeftForeArm -59.383980 -0.000000 25.565858
LeftHand -52.623404 -0.000000 103.725052
LeftHandThumb1 -26.253704 0.000000 33.147579
RightShoulder -8.685629 16.713995 -22.745885
RightArm 8.767779 -46.113327 48.009333
RightForeArm -23.228006 -0.000000 52.268017
RightHand -1.416935 -0.000000 16.528645
RightHandThumb1 -24.326973 -0.000000 -32.862282
LeftUpLeg -108.839815 23.331734 -18.748691
LeftLeg 77.323190 -0.000000 -0.000000
LeftFoot 11.562968 15.382463 -22.278075
LeftToeBase 6.153957 -0.000000 -0.000000
RightUpLeg -112.542382 -7.648101 0.893643
RightLeg 140.077281 -0.000000 -0.000000
RightFoot -13.176491 -5.341966 3.653664
RightToeBase -0.245917 -0.000000 0.000000
410
root 1.373007 3.402880 -14.933472 -18.753255 -24.553523 -15.150295
Spine 31.788095 10.028767 7.370274
Head -23.237999 4.493109 11.379044
LeftShoulder 1.810712 17.069931 23.942046
LeftArm 5.280562 25.416586 -101.717003
LeftForeArm -59.784875 -0.000000 25.902970
LeftHand -52.459225 0.000000 104.084522
LeftHandThumb1 -26.253704 0.000000 33.147579
RightShoulder -8.839972 16.258627 -22.167025
RightArm 8.160304 -47.081130 49.608360
RightForeArm -23.461703 -0.000000 51.838060
RightHand -1.619740 -0.000000 17.071358
RightHandThumb1 -24.326973 -0.000000 -32.862282
LeftUpLeg -108.881850 23.461872 -18.740699
LeftLeg 77.430558 -0.000000 -0.000000
LeftFoot 11.590153 15.300969 -22.104800
LeftToeBase 6.190626 -0.000000 -0.000000
RightUpLeg -112.286622 -7.621693 1.159424
RightLeg 140.087378 -0.000000 -0.000000
RightFoot -13.208671 -5.494793 3.786539
RightToeBase -0.274850 -0.000000 0.000000
411
root 1.341567 3.399060 -14.927728 -18.846230 -24.580614 -15.527680
Spine 31.667500 9.888424 7.392430
Head -22.664328 4.088306 12.539458
LeftShoulder 1.938125 17.257627 24.464470
LeftArm 5.120260 25.455944 -102.087034
LeftForeArm -59.887406 -0.000000 26.165176
LeftHand -52.520175 -0.000000 104.410204
LeftHandThumb1 -26.253704 0.000000 33.147579
RightShoulder -9.109113 16.059906 -21.613358
RightArm 7.321434 -48.214010 51.384884
RightForeArm -23.430292 -0.000000 51.198494
RightHand -1.449659 0.000000 17.499722
RightHandThumb1 -24.326973 -0.000000 -32.862282
LeftUpLeg -108.889061 23.624633 -18.710641
LeftLeg 77.576376 -0.000000 -0.000000
LeftFoot 11.692547 15.249194 -22.083838
LeftToeBase 5.827755 -0.000000 -0.000000
RightUpLeg -111.990817 -7.608832 1.511577
RightLeg 140.097818 -0.000000 -0.000000
RightFoot -13.128775 -5.752806 3.708072
RightToeBase -0.446461 -0.000000 0.000000
